<?xml version="1.0" encoding="UTF-8"?>
<!-- Generator: Adobe Illustrator 15.0.2, SVG Export Plug-In . SVG Version: 6.00 Build 0)  -->
<!DOCTYPE svg PUBLIC "-//W3C//DTD SVG 1.1//EN" "http://www.w3.org/Graphics/SVG/1.1/DTD/svg11.dtd">
<svg xmlns="http://www.w3.org/2000/svg" xmlns:xlink="http://www.w3.org/1999/xlink" version="1.1" id="Layer_1" x="0px" y="0px" width="511.999px" height="591.549px" viewBox="0.333 0.001 511.999 591.549" enable-background="new 0.333 0.001 511.999 591.549" xml:space="preserve">
<path d="M512.331,256.01c0,3.853-0.743,7.727-2.274,11.414c-4.621,11.16-15.504,18.435-27.581,18.435H380.489v275.836  c0,16.488-13.368,29.855-29.855,29.855H162.052c-16.487,0-29.855-13.367-29.855-29.855V285.858H30.195  c-12.078,0-22.96-7.274-27.582-18.435c-4.636-11.151-2.07-24.006,6.473-32.526L235.227,8.746  C245.3-1.327,261.088-2.88,272.932,5.036c1.779,1.188,3.39,2.54,4.825,4.023c9.046,9.038,225.835,225.838,225.835,225.838  C509.299,240.598,512.331,248.24,512.331,256.01z M320.777,531.832V256.003c0-16.488,13.368-29.856,29.856-29.856h59.77  L256.343,72.08L102.276,226.146h59.77c16.487,0,29.855,13.368,29.855,29.856v275.836L320.777,531.832L320.777,531.832z" fill="#000000"/>
</svg>
