<?xml version="1.0" encoding="UTF-8"?>
<!-- Generator: Adobe Illustrator 15.0.2, SVG Export Plug-In . SVG Version: 6.00 Build 0)  -->
<!DOCTYPE svg PUBLIC "-//W3C//DTD SVG 1.1//EN" "http://www.w3.org/Graphics/SVG/1.1/DTD/svg11.dtd">
<svg xmlns="http://www.w3.org/2000/svg" xmlns:xlink="http://www.w3.org/1999/xlink" version="1.1" id="Layer_1" x="0px" y="0px" width="512px" height="443.148px" viewBox="-0.333 0 512 443.148" enable-background="new -0.333 0 512 443.148" xml:space="preserve">
<path d="M290.08,443.148c-3.338,0-6.688-0.649-9.88-1.975c-9.658-3.999-15.955-13.419-15.955-23.866v-88.273H25.509  c-14.271,0-25.841-11.57-25.841-25.841V139.96c0-14.271,11.57-25.841,25.841-25.841h238.736v-88.28  c0-10.454,6.297-19.873,15.955-23.866c9.652-4.013,20.775-1.786,28.156,5.596l195.739,195.738  c8.719,8.726,10.068,22.388,3.211,32.64c-1.028,1.533-2.202,2.934-3.482,4.176c-7.823,7.83-195.468,195.468-195.468,195.468  C303.423,440.518,296.806,443.148,290.08,443.148z M51.347,277.352h238.739c14.271,0,25.842,11.57,25.842,25.841v51.732  l133.356-133.348L315.928,88.228v51.732c0,14.271-11.57,25.841-25.842,25.841H51.347V277.352z" fill="#000000"/>
</svg>
