<?xml version="1.0" encoding="UTF-8"?>
<!-- Generator: Adobe Illustrator 15.0.2, SVG Export Plug-In . SVG Version: 6.00 Build 0)  -->
<!DOCTYPE svg PUBLIC "-//W3C//DTD SVG 1.1//EN" "http://www.w3.org/Graphics/SVG/1.1/DTD/svg11.dtd">
<svg xmlns="http://www.w3.org/2000/svg" xmlns:xlink="http://www.w3.org/1999/xlink" version="1.1" id="Layer_1" x="0px" y="0px" width="512px" height="514.895px" viewBox="0.329 0 512 514.895" enable-background="new 0.329 0 512 514.895" xml:space="preserve">
<g>
	<path d="M269.787,230.981c-94.832-88.469-231.988-74.204-237.775-73.549c-19.574,2.197-33.652,19.85-31.458,39.418   c2.197,19.567,19.786,33.672,39.417,31.459c1.07-0.124,110.06-11.508,181.155,54.828c44.85,41.84,65.719,107.309,62.009,194.584   c-0.836,19.679,14.436,36.318,34.114,37.147c0.52,0.013,1.026,0.025,1.539,0.025c18.995,0,34.779-14.986,35.603-34.146   C359.032,371.711,330.559,287.678,269.787,230.981z" fill="#000000"/>
	<path d="M87.886,345.321c-22.173,0-43.894,8.959-59.583,24.648c-15.69,15.69-24.703,37.414-24.703,59.638   c0,22.18,9.013,43.903,24.703,59.581c15.696,15.689,37.417,24.706,59.583,24.706c22.24,0,43.961-9.017,59.584-24.706   c15.689-15.696,24.703-37.42,24.703-59.581c0-22.236-9.014-43.947-24.703-59.638C131.853,354.28,110.126,345.321,87.886,345.321z" fill="#000000"/>
	<path d="M386.238,108.604C245.186-21.885,40.373,1.155,31.711,2.207C12.16,4.568-1.77,22.332,0.592,41.887   C2.95,61.43,20.644,75.4,40.272,73.007c1.775-0.199,180.444-20.375,297.535,87.946c74.049,68.499,108.537,175.066,102.528,316.75   c-0.836,19.679,14.437,36.312,34.115,37.147c0.513,0.013,1.025,0.025,1.532,0.025c19.008,0,34.786-14.993,35.609-34.153   C518.532,317.184,476.356,191.976,386.238,108.604z" fill="#000000"/>
</g>
</svg>
