<?xml version="1.0" encoding="UTF-8"?>
<!-- Generator: Adobe Illustrator 15.0.2, SVG Export Plug-In . SVG Version: 6.00 Build 0)  -->
<!DOCTYPE svg PUBLIC "-//W3C//DTD SVG 1.1//EN" "http://www.w3.org/Graphics/SVG/1.1/DTD/svg11.dtd">
<svg xmlns="http://www.w3.org/2000/svg" xmlns:xlink="http://www.w3.org/1999/xlink" version="1.1" id="Layer_1" x="0px" y="0px" width="512px" height="690.763px" viewBox="0.328 0 512 690.763" enable-background="new 0.328 0 512 690.763" xml:space="preserve">
<g>
	<path d="M458.362,0c-29.807,0-53.967,24.16-53.967,53.966v582.831c0,29.813,24.16,53.966,53.967,53.966   c29.806,0,53.966-24.152,53.966-53.966V53.966C512.328,24.16,488.168,0,458.362,0z" fill="#000000"/>
	<path d="M256.351,192.307c-29.807,0-53.966,24.175-53.966,53.966v390.524c0,29.813,24.159,53.966,53.966,53.966   s53.966-24.152,53.966-53.966V246.273C310.316,216.474,286.157,192.307,256.351,192.307z" fill="#000000"/>
	<path d="M54.294,384.674c-29.806,0-53.966,24.167-53.966,53.966v198.157c0,29.813,24.16,53.966,53.966,53.966   c29.807,0,53.967-24.152,53.967-53.966V438.64C108.261,408.841,84.101,384.674,54.294,384.674z" fill="#000000"/>
</g>
</svg>
